<svg width="1585" height="267" viewBox="0 0 1585 267" fill="none" xmlns="http://www.w3.org/2000/svg">
  <path
    d="M359.499 229.964C346.655 229.964 335.787 227.165 326.895 221.566C318.003 215.803 311.17 208.146 306.394 198.595C301.784 188.88 299.478 178.012 299.478 165.991C299.478 152.982 302.113 141.785 307.382 132.399C312.652 122.848 319.732 115.521 328.624 110.416C337.681 105.147 347.808 102.512 359.005 102.512C368.721 102.512 377.283 104.488 384.693 108.44C392.103 112.227 398.196 117.414 402.971 124.001C407.911 130.423 411.452 137.751 413.592 145.984C415.898 154.217 416.721 162.698 416.062 171.425H321.708C322.038 181.634 324.261 189.703 328.377 195.631C332.659 201.559 337.681 205.758 343.444 208.228C349.208 210.533 354.559 211.686 359.499 211.686C366.415 211.686 372.179 210.616 376.789 208.475C381.565 206.17 385.352 203.206 388.151 199.583L408.158 205.511C403.712 212.592 397.373 218.437 389.139 223.048C380.906 227.659 371.026 229.964 359.499 229.964ZM321.955 154.876H394.079C394.079 149.113 392.597 143.596 389.633 138.327C386.834 133.058 382.8 128.776 377.53 125.483C372.426 122.025 366.251 120.296 359.005 120.296C352.913 120.296 347.149 121.449 341.715 123.754C336.281 126.059 331.753 129.764 328.13 134.869C324.672 139.974 322.614 146.643 321.955 154.876Z"
    fill="white" />
  <path
    d="M440.531 266.767V104.488H455.598L461.279 123.754C465.066 117.332 470.253 112.227 476.84 108.44C483.426 104.488 491.495 102.512 501.046 102.512C510.432 102.512 519.077 105.064 526.981 110.169C535.049 115.109 541.471 122.354 546.247 131.905C551.187 141.291 553.657 152.735 553.657 166.238C553.657 179.576 551.187 191.02 546.247 200.571C541.471 210.122 535.049 217.449 526.981 222.554C519.077 227.494 510.432 229.964 501.046 229.964C491.495 229.964 483.426 228.07 476.84 224.283C470.253 220.331 465.066 215.062 461.279 208.475V266.767H440.531ZM495.612 212.18C506.15 212.18 514.548 208.146 520.806 200.077C527.228 192.008 530.439 180.729 530.439 166.238C530.439 151.583 527.228 140.303 520.806 132.399C514.548 124.33 506.15 120.296 495.612 120.296C485.073 120.296 476.593 124.33 470.171 132.399C463.913 140.303 460.785 151.583 460.785 166.238C460.785 180.729 463.913 192.008 470.171 200.077C476.593 208.146 485.073 212.18 495.612 212.18Z"
    fill="white" />
  <path
    d="M580.433 227V62.004H601.181V123.013C604.639 117.25 609.497 112.392 615.754 108.44C622.011 104.488 630.327 102.512 640.701 102.512C655.521 102.512 665.977 106.876 672.07 115.603C678.163 124.166 681.209 135.445 681.209 149.442V227H660.461V155.617C660.461 149.36 659.885 143.596 658.732 138.327C657.579 132.893 655.027 128.529 651.075 125.236C647.288 121.943 641.442 120.296 633.538 120.296C623.493 120.296 615.589 123.754 609.826 130.67C604.063 137.421 601.181 147.384 601.181 160.557V227H580.433Z"
    fill="white" />
  <path
    d="M764.734 229.964C751.89 229.964 741.022 227.165 732.13 221.566C723.238 215.803 716.404 208.146 711.629 198.595C707.018 188.88 704.713 178.012 704.713 165.991C704.713 152.982 707.347 141.785 712.617 132.399C717.886 122.848 724.967 115.521 733.859 110.416C742.915 105.147 753.042 102.512 764.24 102.512C773.955 102.512 782.518 104.488 789.928 108.44C797.338 112.227 803.43 117.414 808.206 124.001C813.146 130.423 816.686 137.751 818.827 145.984C821.132 154.217 821.955 162.698 821.297 171.425H726.943C727.272 181.634 729.495 189.703 733.612 195.631C737.893 201.559 742.915 205.758 748.679 208.228C754.442 210.533 759.794 211.686 764.734 211.686C771.65 211.686 777.413 210.616 782.024 208.475C786.799 206.17 790.586 203.206 793.386 199.583L813.393 205.511C808.947 212.592 802.607 218.437 794.374 223.048C786.14 227.659 776.26 229.964 764.734 229.964ZM727.19 154.876H799.314C799.314 149.113 797.832 143.596 794.868 138.327C792.068 133.058 788.034 128.776 782.765 125.483C777.66 122.025 771.485 120.296 764.24 120.296C758.147 120.296 752.384 121.449 746.95 123.754C741.516 126.059 736.987 129.764 733.365 134.869C729.907 139.974 727.848 146.643 727.19 154.876Z"
    fill="white" />
  <path
    d="M845.765 227V104.488H861.079L866.513 123.013C869.971 117.25 874.664 112.392 880.592 108.44C886.685 104.488 894.259 102.512 903.316 102.512C912.702 102.512 920.277 104.406 926.04 108.193C931.803 111.98 936.002 117.25 938.637 124.001C943.577 116.426 949.505 110.992 956.421 107.699C963.502 104.241 971.323 102.512 979.886 102.512C994.047 102.512 1004.17 106.876 1010.27 115.603C1016.36 124.166 1019.41 135.445 1019.41 149.442V227H998.658V155.617C998.658 149.36 997.999 143.596 996.682 138.327C995.529 132.893 993.059 128.529 989.272 125.236C985.649 121.943 980.051 120.296 972.476 120.296C963.584 120.296 956.421 123.754 950.987 130.67C945.718 137.421 943.083 147.384 943.083 160.557V227H922.335V155.617C922.335 149.36 921.676 143.596 920.359 138.327C919.206 132.893 916.736 128.529 912.949 125.236C909.326 121.943 903.728 120.296 896.153 120.296C887.261 120.296 880.098 123.754 874.664 130.67C869.23 137.421 866.513 147.384 866.513 160.557V227H845.765Z"
    fill="white" />
  <path
    d="M1102.91 229.964C1090.07 229.964 1079.2 227.165 1070.31 221.566C1061.42 215.803 1054.58 208.146 1049.81 198.595C1045.2 188.88 1042.89 178.012 1042.89 165.991C1042.89 152.982 1045.53 141.785 1050.79 132.399C1056.06 122.848 1063.14 115.521 1072.04 110.416C1081.09 105.147 1091.22 102.512 1102.42 102.512C1112.13 102.512 1120.7 104.488 1128.11 108.44C1135.52 112.227 1141.61 117.414 1146.38 124.001C1151.32 130.423 1154.86 137.751 1157 145.984C1159.31 154.217 1160.13 162.698 1159.47 171.425H1065.12C1065.45 181.634 1067.67 189.703 1071.79 195.631C1076.07 201.559 1081.09 205.758 1086.86 208.228C1092.62 210.533 1097.97 211.686 1102.91 211.686C1109.83 211.686 1115.59 210.616 1120.2 208.475C1124.98 206.17 1128.76 203.206 1131.56 199.583L1151.57 205.511C1147.12 212.592 1140.78 218.437 1132.55 223.048C1124.32 227.659 1114.44 229.964 1102.91 229.964ZM1065.37 154.876H1137.49C1137.49 149.113 1136.01 143.596 1133.05 138.327C1130.25 133.058 1126.21 128.776 1120.94 125.483C1115.84 122.025 1109.66 120.296 1102.42 120.296C1096.32 120.296 1090.56 121.449 1085.13 123.754C1079.69 126.059 1075.17 129.764 1071.54 134.869C1068.08 139.974 1066.03 146.643 1065.37 154.876Z"
    fill="white" />
  <path
    d="M1183.94 227V104.488H1199.01L1205.68 127.212C1209.96 119.802 1215.72 113.874 1222.97 109.428C1230.38 104.817 1239.19 102.512 1249.4 102.512V124.001C1248.25 124.001 1247.01 124.001 1245.69 124.001C1244.54 124.001 1243.39 124.083 1242.23 124.248C1228.24 125.401 1218.44 130.258 1212.84 138.821C1207.41 147.384 1204.69 159.24 1204.69 174.389V227H1183.94Z"
    fill="white" />
  <path
    d="M1289.13 81.27C1285.01 81.27 1281.39 79.788 1278.26 76.824C1275.29 73.6954 1273.81 69.9904 1273.81 65.709C1273.81 61.4277 1275.29 57.805 1278.26 54.841C1281.39 51.877 1285.01 50.395 1289.13 50.395C1293.41 50.395 1297.03 51.877 1299.99 54.841C1303.12 57.805 1304.69 61.4277 1304.69 65.709C1304.69 69.9904 1303.12 73.6954 1299.99 76.824C1297.03 79.788 1293.41 81.27 1289.13 81.27ZM1278.75 227V121.037H1261.71V104.488H1299.5V227H1278.75Z"
    fill="white" />
  <path
    d="M1381.34 229.964C1372.11 229.964 1363.47 227.494 1355.4 222.554C1347.33 217.449 1340.83 210.204 1335.89 200.818C1331.11 191.267 1328.73 179.741 1328.73 166.238C1328.73 152.735 1331.11 141.291 1335.89 131.905C1340.83 122.354 1347.33 115.109 1355.4 110.169C1363.47 105.064 1372.11 102.512 1381.34 102.512C1391.05 102.512 1399.2 104.488 1405.79 108.44C1412.38 112.227 1417.48 117.332 1421.1 123.754V62.004H1441.85V180.811C1441.85 184.928 1442.02 191.02 1442.35 199.089C1442.67 206.993 1443.91 216.297 1446.05 227H1426.54L1421.1 208.475C1417.48 215.062 1412.38 220.331 1405.79 224.283C1399.2 228.07 1391.05 229.964 1381.34 229.964ZM1386.77 212.18C1397.31 212.18 1405.71 208.146 1411.96 200.077C1418.39 192.008 1421.6 180.729 1421.6 166.238C1421.6 151.583 1418.39 140.303 1411.96 132.399C1405.71 124.33 1397.31 120.296 1386.77 120.296C1376.23 120.296 1367.75 124.33 1361.33 132.399C1355.07 140.303 1351.94 151.583 1351.94 166.238C1351.94 180.729 1355.07 192.008 1361.33 200.077C1367.75 208.146 1376.23 212.18 1386.77 212.18Z"
    fill="white" />
  <path
    d="M1528.17 229.964C1515.32 229.964 1504.45 227.165 1495.56 221.566C1486.67 215.803 1479.84 208.146 1475.06 198.595C1470.45 188.88 1468.15 178.012 1468.15 165.991C1468.15 152.982 1470.78 141.785 1476.05 132.399C1481.32 122.848 1488.4 115.521 1497.29 110.416C1506.35 105.147 1516.47 102.512 1527.67 102.512C1537.39 102.512 1545.95 104.488 1553.36 108.44C1560.77 112.227 1566.86 117.414 1571.64 124.001C1576.58 130.423 1580.12 137.751 1582.26 145.984C1584.56 154.217 1585.39 162.698 1584.73 171.425H1490.38C1490.7 181.634 1492.93 189.703 1497.04 195.631C1501.33 201.559 1506.35 205.758 1512.11 208.228C1517.87 210.533 1523.23 211.686 1528.17 211.686C1535.08 211.686 1540.85 210.616 1545.46 208.475C1550.23 206.17 1554.02 203.206 1556.82 199.583L1576.83 205.511C1572.38 212.592 1566.04 218.437 1557.81 223.048C1549.57 227.659 1539.69 229.964 1528.17 229.964ZM1490.62 154.876H1562.75C1562.75 149.113 1561.26 143.596 1558.3 138.327C1555.5 133.058 1551.47 128.776 1546.2 125.483C1541.09 122.025 1534.92 120.296 1527.67 120.296C1521.58 120.296 1515.82 121.449 1510.38 123.754C1504.95 126.059 1500.42 129.764 1496.8 134.869C1493.34 139.974 1491.28 146.643 1490.62 154.876Z"
    fill="white" />
  <circle cx="160" cy="90" r="90" fill="#58A6FF" />
  <circle cx="90" cy="160" r="90" fill="#DB61A2" />
  <mask id="mask0_1_12" style="mask-type:alpha" maskUnits="userSpaceOnUse" x="0" y="70" width="180"
    height="180">
    <circle cx="90" cy="160" r="90" fill="#DB61A2" />
  </mask>
  <g mask="url(#mask0_1_12)">
    <circle cx="160" cy="90" r="90" fill="white" />
  </g>
</svg>